<?xml version="1.0" ?><!DOCTYPE svg  PUBLIC '-//W3C//DTD SVG 1.1//EN'  'http://www.w3.org/Graphics/SVG/1.1/DTD/svg11.dtd'><svg enable-background="new 0 0 128 128" id="Layer_1" version="1.1" viewBox="0 0 28 28" xml:space="preserve" xmlns="http://www.w3.org/2000/svg" xmlns:xlink="http://www.w3.org/1999/xlink"><path d="M69,56H58v57c0,2.8,2.5,5,5.3,5h0.4c2.8,0,5.4-2.2,5.4-5V56z" fill="#FFFFFF"/><path d="M69,56H58v57c0,2.8,2.5,5,5.3,5h0.4  c2.8,0,5.4-2.2,5.4-5V56z" fill="none" stroke="#3D3D3D" stroke-miterlimit="10" stroke-width="2"/><polygon fill="#C1C1C0" points="71.4,32 55.6,32 58.5,56 68.5,56 "/><polygon fill="none" points="71.4,32 55.6,32 58.5,56 68.5,56 " stroke="#3D3D3D" stroke-miterlimit="10" stroke-width="2"/><path d="M63.5,11.9L63.5,11.9c-4.4,0-10.8,3.5-10.8,7.9L55.6,32h15.8l2.9-12.2C74.3,15.5,67.9,11.9,63.5,11.9z" fill="#E875AE"/><path d="M63.5,11.9L63.5,11.9c-4.4,0-10.8,3.5-10.8,7.9  L55.6,32h15.8l2.9-12.2C74.3,15.5,67.9,11.9,63.5,11.9z" fill="none" stroke="#3D3D3D" stroke-miterlimit="10" stroke-width="2"/><line fill="none" stroke="#3D3D3D" stroke-miterlimit="10" stroke-width="2" x1="61" x2="61" y1="12" y2="21"/><line fill="none" stroke="#3D3D3D" stroke-miterlimit="10" stroke-width="2" x1="66" x2="66" y1="12" y2="21"/><line fill="none" stroke="#3D3D3D" stroke-miterlimit="10" stroke-width="2" x1="70" x2="70" y1="14" y2="21"/><line fill="none" stroke="#3D3D3D" stroke-miterlimit="10" stroke-width="2" x1="57" x2="57" y1="14" y2="21"/></svg>